# xmcd
#
# Track frame offsets: 
#        150
#        11395
#        22267
#        33392
#        45797
#        53992
#        65777
#        76122
#        85520
#        95052
#        103487
#        113747
#        123565
#        131912
#        140262
#        152017
#        164360
#        175290
#        187650
#        196062
#        206357
#        218292
#        237740
#        269597
#
# Disc length: 3858 seconds
#
# Revision: 3
# Processed by: cddbd v1.5.2PL0 Copyright (c) Steve Scherf et al.
# Submitted via: ExactAudioCopy v0.99pb5
#
DISCID=490f1018
DTITLE=Chuck Berry - The Anthology [CD2]
DYEAR=2000
DGENRE=Rock and Roll
TTITLE0=Back In The U.S.A.
TTITLE1=Do You Love Me
TTITLE2=Betty Jean
TTITLE3=Childhood Sweetheart
TTITLE4=Let It Rock
TTITLE5=Too Pooped To Pop
TTITLE6=I Got To Find My Baby
TTITLE7=Don't You Lie To Me
TTITLE8=Bye Bye Johnny
TTITLE9=Jaguar and Thunderbird
TTITLE10=Down The Road Apiece
TTITLE11=Confessin' The Blues
TTITLE12=I'm Talking About You
TTITLE13=Come On
TTITLE14=Nadine (Is It You)
TTITLE15=You Never Can Tell
TTITLE16=Promised Land
TTITLE17=No Particular Place To Go
TTITLE18=Dear Dad
TTITLE19=I Want To Be Your Driver
TTITLE20=Tulane
TTITLE21=My Ding-A-Ling (Live, Single Edit)
TTITLE22=Reelin' and Rockin' (Live)
TTITLE23=Bio
EXTD=
EXTT0=
EXTT1=
EXTT2=
EXTT3=
EXTT4=
EXTT5=
EXTT6=
EXTT7=
EXTT8=
EXTT9=
EXTT10=
EXTT11=
EXTT12=
EXTT13=
EXTT14=
EXTT15=
EXTT16=
EXTT17=
EXTT18=
EXTT19=
EXTT20=
EXTT21=
EXTT22=
EXTT23=
PLAYORDER=
